#format: frame checksums
#version: 2
#hash: MD5
#tb 0: 1/16000
#media_type 0: audio
#codec_id 0: pcm_s16le
#sample_rate 0: 16000
#channel_layout_name 0: mono
#stream#, dts,        pts, duration,     size, hash
0,          0,          0,      512,     1024, ecc4b3d6b6898813d21ee7dea53ea514
0,        512,        512,      512,     1024, fd0e44b2b74a807adb938f2b44767003
0,       1024,       1024,      512,     1024, b191129323f233839af583fb7219317f
0,       1536,       1536,      512,     1024, b4ea4e2cbf472e8a27570ae6315137ff
0,       2048,       2048,      512,     1024, 2d56763ccb004c045e07f67ff5664d67
0,       2560,       2560,      512,     1024, 70fb563bf98cbfc985c5c3d757a2cc9d
0,       3072,       3072,      512,     1024, d2783caf8a3d69537b528620e7245144
0,       3584,       3584,      512,     1024, 67ec78ac57b46b1c4def5da6ce5d8394
0,       4096,       4096,      512,     1024, 574d19974be17fdd3679dda356818dc2
0,       4608,       4608,      512,     1024, 26e1a75d95dbce14a999479cb02f99ea
0,       5120,       5120,      512,     1024, 7c653537dfc04e8c6a078522ac53dac7
0,       5632,       5632,      512,     1024, 37275182038135eaef79c95cb64d219d
0,       6144,       6144,      512,     1024, 05e1c4b4eea068479531f1f0d6ca068d
0,       6656,       6656,      512,     1024, aa316c63558f79e45d6b6645a5fe673a
0,       7168,       7168,      512,     1024, a59cf31b8cbabca8ed5868869e733be1
0,       7680,       7680,      512,     1024, 2e8e8203207557efb070b77dc74c79c1
0,       8192,       8192,      512,     1024, 4b41efcb7210b29af86d4293ee8c28ee
0,       8704,       8704,      512,     1024, 9043b3f3affd4eb4a084741ef04560f3
0,       9216,       9216,      512,     1024, 87407f02b03024c0bd8b6aefc0a655e3
0,       9728,       9728,      512,     1024, 18ac61dd2363484e0de3091e54736f64
0,      10240,      10240,      512,     1024, 5e2a228323b1dfaa70428dd404c1f6fe
0,      10752,      10752,      512,     1024, 3d090b22e015669d3e0cf45b5b29a067
0,      11264,      11264,      512,     1024, 52292971aa9ee6df0c4766ff0ebff792
0,      11776,      11776,      512,     1024, eb948d758c51c304b3df3fe71299e5b5
0,      12288,      12288,      512,     1024, 6e19f6cc6e15df0d329f2f6c14a51050
0,      12800,      12800,      512,     1024, d5a69fc82cbe91a2c21d5a5963ffba88
0,      13312,      13312,      512,     1024, 7b93bcc77680db1c0ceb7ddaacd7381f
0,      13824,      13824,      512,     1024, b6b9bbd66a26df360092bfd0e86b2643
0,      14336,      14336,      512,     1024, 2107508296bc79970f4b9c134d1fd9e1
0,      14848,      14848,      512,     1024, 42283a97b11133caddc12fd8e06e5ca8
0,      15360,      15360,      512,     1024, 8a1bfa46184ab907888881498220225a
0,      15872,      15872,      512,     1024, 16d203df56b120d02876d41d831a9460
0,      16384,      16384,      512,     1024, 5a56f8007c87cf6c8730064f3fbe5c79
0,      16896,      16896,      512,     1024, cd17fc200d6c5510b1ee229ff36b4ba4
0,      17408,      17408,      512,     1024, 76d99beef096e45c4a6e16e52128c924
0,      17920,      17920,      512,     1024, c74c7e5b73034974f7b17ac9c03e632e
0,      18432,      18432,      512,     1024, b1dcbb79c2c281b7ddf2ec8a1d2bf2aa
0,      18944,      18944,      512,     1024, 779e495c7783d2811db6c9feeeb214b0
0,      19456,      19456,      512,     1024, 326cefdaf3e4390f7a4e9d070c07cc45
0,      19968,      19968,      512,     1024, 5f870762b90ab527e3bd8d3c9777b2d5
0,      20480,      20480,      512,     1024, 7d38fc0b9544f1c2b8be2d2a2e58ded4
0,      20992,      20992,      512,     1024, c1681508f0718a3155c47aeffa8ab9c0
0,      21504,      21504,      512,     1024, 0c10d4db76d03f8497e7349295c287cb
0,      22016,      22016,      512,     1024, 622eff94cc7ae5e40b2cdecdf9bf7d3c
0,      22528,      22528,      512,     1024, b657a651506981a4f7f1b7b5b828e210
0,      23040,      23040,      512,     1024, e5b6fbbc0605f1284f39d34358aa78b9
0,      23552,      23552,      512,     1024, 4545b3eb1708b1bb631db35bf41975dc
0,      24064,      24064,      512,     1024, 615dd05eecb8981524ad2cabf0b7c605
0,      24576,      24576,      512,     1024, a8ff25b2a8888214b8bc2476b8893f13
0,      25088,      25088,      512,     1024, 4e9edb65759047da8f70701481448d4c
0,      25600,      25600,      512,     1024, 270c9409cab3ec526148b4cd2f9da859
0,      26112,      26112,      512,     1024, 46fc0bf208ca574a5cc8a27950a516b6
0,      26624,      26624,      512,     1024, c3dd6e4ae2ad18bcf24e14153033923b
0,      27136,      27136,      512,     1024, a6944b3974e5beae9b52557ef405d48d
0,      27648,      27648,      512,     1024, c8b8a19fb766b22ce9eb57fcce4770da
0,      28160,      28160,      512,     1024, 92d2cd4d5bc8953b9861b3a8d4e0ec74
0,      28672,      28672,      512,     1024, 37ace51c793de31d9a77568f0a864a37
0,      29184,      29184,      512,     1024, 80ff33962c968afe4d9c39360d727e22
0,      29696,      29696,      512,     1024, 1b7aa60ba7e411e53c7df3f3bdcaabe1
0,      30208,      30208,      512,     1024, e5db2522652342bc1a65aea8eb1276c8
0,      30720,      30720,      512,     1024, 9b92893a4de55192ff60722a3087a939
0,      31232,      31232,      512,     1024, 5cc05b5f95b933fbffcfe78c38c6cf2d
0,      31744,      31744,      512,     1024, d49dd99fb47b621588a8007baaddc4db
0,      32256,      32256,      512,     1024, 1d2d87a6fde25649f1a81cbe2bf4a5b8
0,      32768,      32768,      512,     1024, 75c19658be99c8299b2744609af799f8
0,      33280,      33280,      512,     1024, f68af60bdf638cffcb59520a2ef978f1
0,      33792,      33792,      512,     1024, 58482f193563657d9403478290ea6ad5
0,      34304,      34304,      512,     1024, 0bacae0323f17e26b8e29875135d0e82
0,      34816,      34816,      512,     1024, 06659219a1034eabef94744f1f95b9b7
0,      35328,      35328,      512,     1024, c4f8117a33b0fcc78b9e81111d1f7f45
0,      35840,      35840,      512,     1024, 944502626b0b9206163bdc64fb16b13e
0,      36352,      36352,      512,     1024, a5d18841599d9a7d1aedf31b232b9f9b
0,      36864,      36864,      512,     1024, b80f1d39e9aba3240834c37176ec8eec
0,      37376,      37376,      512,     1024, 9769b38891d2941384af776eedb48aa4
0,      37888,      37888,      512,     1024, 9e3a42bb02d600de2e3df71dfca99402
0,      38400,      38400,      512,     1024, 6108204ebc9a4cbe0503a6e09892dfd6
0,      38912,      38912,      512,     1024, 8d2968e23c448f2e2a5d16a7270ff76c
0,      39424,      39424,      512,     1024, 6762adf2728ff4e7db118f647941086c
0,      39936,      39936,      512,     1024, 9f3f5479785eb9c6e93fa655398ba769
0,      40448,      40448,      512,     1024, e829e74c660685ccd299c4225e958409
0,      40960,      40960,      512,     1024, 14375fb18a4462f6767d219dfd7ae7bd
0,      41472,      41472,      512,     1024, 0469478b4c3589aaa5aa66a3d1b9cfec
0,      41984,      41984,      512,     1024, b4bb9d1f67901d43e168371fe6209752
0,      42496,      42496,      512,     1024, 8284e5acef28cccc5d8b4446b087917f
0,      43008,      43008,      512,     1024, b4ed7694ad2ae219695006bc2b875a3f
0,      43520,      43520,      512,     1024, 863b8ba685c2023e16a92edab30574ae
0,      44032,      44032,      512,     1024, bffacdbe1c3b2985e01ab3c1e87151cf
0,      44544,      44544,      512,     1024, 0bab5c26239bb2bf64bb9ddd2cdab140
0,      45056,      45056,      512,     1024, 82f9e1a8ea4749e2e86b00f762c928e4
0,      45568,      45568,      512,     1024, 773c765c493806b96cb462bd67916813
0,      46080,      46080,      512,     1024, 77712d03b3b80763e196daa6d3af0b10
0,      46592,      46592,      512,     1024, e46f1bfe86814b922456bcecd646c9ea
0,      47104,      47104,      512,     1024, e2a0ec93107cb551dd23aacb2ae08f6d
0,      47616,      47616,      512,     1024, 1184e53d7652be1c11f3e9fec4afc28b
0,      48128,      48128,      512,     1024, cffb62d7debaa07436b8749b9a183648
0,      48640,      48640,      512,     1024, 99925d2b1db0be9ae252cac1b3c57233
0,      49152,      49152,      512,     1024, e0ecbfe71d2eae216ac554b635e059ab
0,      49664,      49664,      512,     1024, eb20314e37db7f17fdf51b71b00040ca
0,      50176,      50176,      512,     1024, 2ac824edd62b4d9db11e1f404c6521d6
0,      50688,      50688,      512,     1024, 9f07a0c8332dd9802966893dd0b82b13
0,      51200,      51200,      512,     1024, 53a2f54bdcad4771b39b4ebec791b317
0,      51712,      51712,      512,     1024, 9a533a0b87ddc4d1c6beca0611d9f052
0,      52224,      52224,      512,     1024, 347b31a3f548f9d5c70fb4c5e406e4a4
0,      52736,      52736,      512,     1024, 1b67855847534c5b40fc2ce9d30be33f
0,      53248,      53248,      512,     1024, fbe9cbf8c8e041f979a2715db71211ae
0,      53760,      53760,      512,     1024, 40ae530d58b46cf48ffadb6937a6560a
0,      54272,      54272,      512,     1024, fda5c571021d83183590f443a6ad1cc9
0,      54784,      54784,      512,     1024, 9bb60367ae7e2ab1945ba1496aa1857c
0,      55296,      55296,      512,     1024, 5f37d53be72a55528cc69b2d63b98757
0,      55808,      55808,      512,     1024, 7bb1ac5d959a43123f76f0cdfa4ae92b
0,      56320,      56320,      512,     1024, 12e0019a216551b44f45b03297b945cf
0,      56832,      56832,      512,     1024, a4cb0d110b5db70e3959ee8bc5f198ae
0,      57344,      57344,      512,     1024, 37b977cfa20b46d2d31fc9cb2fb36130
0,      57856,      57856,      512,     1024, c023794bbc26ed825c4b1a66f524b91f
0,      58368,      58368,      512,     1024, a77f817271e4815234f032f593814deb
0,      58880,      58880,      512,     1024, cca65e10c7ba86da0c046951118b20aa
0,      59392,      59392,      512,     1024, f6786a8257ca114b944df9cd54135d78
0,      59904,      59904,      512,     1024, 60cda73714b73b21588ecc96ed6676bc
0,      60416,      60416,      512,     1024, 5a88b03b20f874b3cde21ce6dc7aea80
0,      60928,      60928,      512,     1024, de75587ea1a8c563fc6afaf2b19d75f3
0,      61440,      61440,      512,     1024, 90de9f9741ba4266dc72740b5c935593
0,      61952,      61952,      512,     1024, 0ea9f452d07e346398f8ec2011554468
0,      62464,      62464,      512,     1024, d41d852b6f3f4ecaaf512029cbedbf8c
0,      62976,      62976,      512,     1024, 9e9308d5b8d8628d7d51bffe10d73639
0,      63488,      63488,      512,     1024, c8db11fc5cfb955694560ef5a0b3f63e
0,      64000,      64000,      512,     1024, 9fa55045c1aeda8a9921280d5ed54e11
0,      64512,      64512,      512,     1024, eee1bc41c2f86911db5fa640ae22592b
0,      65024,      65024,      512,     1024, 3415564a810db3df57030667b3ba0096
0,      65536,      65536,      512,     1024, dc68e222eac259b11c1ba382706b34fc
0,      66048,      66048,      512,     1024, cc2ff0377c68ff70eb294748dde632d4
0,      66560,      66560,      512,     1024, 160c39b3173f11a15fd6ea0f835756fe
0,      67072,      67072,      512,     1024, a613ba395c8da5666b170755c96aa2b3
0,      67584,      67584,      512,     1024, 9ec981b2b73aec1f5f74ddf356309ff2
0,      68096,      68096,      512,     1024, f3d15376ca953ca2d4fb3c6f591fc9bb
0,      68608,      68608,      512,     1024, 2ad24a8303dee43463e1eae7e9296ba6
0,      69120,      69120,      512,     1024, 730959eb356e93f89116c6fca2bf8d31
0,      69632,      69632,      512,     1024, a5dbb221747ebce1929916a565a0fbf4
0,      70144,      70144,      512,     1024, 75177da5305c5ade52a67ea448d78177
0,      70656,      70656,      512,     1024, ba6675a2f8cf25d8d27d59f8458e5827
0,      71168,      71168,      512,     1024, a214c576e8993f4e0421d7c408b4b3d6
0,      71680,      71680,      512,     1024, 0862c0728286bf1c9906e39ae22131e3
0,      72192,      72192,      512,     1024, 03f2c6fc66a0bdeede6abd44154ed9f1
0,      72704,      72704,      512,     1024, a4645e91ebc0e052d7a5fec6c7c0ff57
0,      73216,      73216,      512,     1024, fe608b24bd81dfe014286206ba6899cf
0,      73728,      73728,      512,     1024, 82f0c46d62b5f908d289d051ee27ac13
0,      74240,      74240,      512,     1024, c23aaa034f6884274a434027aebb6eb2
0,      74752,      74752,      512,     1024, 3217068fedd93da429f707d8c61d7320
0,      75264,      75264,      512,     1024, 74ce15fb14e579567a7f33107db594e7
0,      75776,      75776,      512,     1024, a148ff64c59038ffa3459c55f74b1907
0,      76288,      76288,      512,     1024, a56c39c6b79b90d83ab4e1e36397cc9e
0,      76800,      76800,      512,     1024, 206abcb5e365053ae47bac7eb85b1478
0,      77312,      77312,      512,     1024, 923bd1d8fd44dfb075e21be94181b047
0,      77824,      77824,      512,     1024, 8d4f6bcfb9705d91333ddcd02ea41207
0,      78336,      78336,      512,     1024, d6052883fdcfc5b4cbe65ef0a2665ffc
0,      78848,      78848,      512,     1024, 6aca284568a638e112ff1bf651a444cf
0,      79360,      79360,      512,     1024, cbaeb186bb3ed97f41dcee6b7d590b4e
0,      79872,      79872,      512,     1024, ec0eeb5fc8c927ee89b1083908934ce7
0,      80384,      80384,      512,     1024, 3512fdaae2ae2c0925d6023986596a90
0,      80896,      80896,      512,     1024, 112b691669b09ee1cb80875c8376f483
0,      81408,      81408,      512,     1024, 2cfeda374d01e135621a8d2b0492a188
0,      81920,      81920,      512,     1024, 661f8957f7caec4cd26d5adc62afbf01
0,      82432,      82432,      512,     1024, 1dc70b963e828ca98b99aebb0c62a0b3
0,      82944,      82944,      512,     1024, 0e272b6268ef9bb010d59f9204c96b41
0,      83456,      83456,      512,     1024, f4460f3b921b83a63537c5cc22a56ba4
0,      83968,      83968,      512,     1024, 362b0d86622e8da0a0d318684a6d1c93
0,      84480,      84480,      512,     1024, 1f06fb22c9a44116925f4ca0d173c00d
0,      84992,      84992,      512,     1024, 8bb58cf107f8d9367d0d9d45f0b7b2a8
0,      85504,      85504,      512,     1024, 279437d9f8f203023990b558bd851e9a
0,      86016,      86016,      512,     1024, afdf57002b3de7a47a7a22b3e6c091f4
0,      86528,      86528,      512,     1024, aadf418238f39444f2397cb9a3e5af33
0,      87040,      87040,      512,     1024, 2b860ae1c3d365ab8bd6f09e868aaac6
0,      87552,      87552,      512,     1024, 58fecb0ed9ccd4023ea6a58f7ab84089
0,      88064,      88064,      512,     1024, 46973367495c9d7dc7a8d025dfed398e
0,      88576,      88576,      512,     1024, c1c62ece55bf144bb04b8e288ff8d744
0,      89088,      89088,      512,     1024, cc19a12d243f86a419fd8ad97bfebc91
0,      89600,      89600,      512,     1024, 5c46ef51bc1cdbc0a6d8c381d5b01f1c
0,      90112,      90112,      512,     1024, e41d4c487982354d11630f9e36d6ee93
0,      90624,      90624,      512,     1024, 0468c0f7abd1ad3cead1982d11ceab87
0,      91136,      91136,      512,     1024, fe18db27f79764937646adf93e289024
0,      91648,      91648,      512,     1024, 9ba3772779e1aa7b84e08afcf3d1c9f4
0,      92160,      92160,      512,     1024, 33d60797f1b5a9a15e364fa5b1f364c0
0,      92672,      92672,      512,     1024, 7a195fc85eef5481fa3c0d2d23e09af3
0,      93184,      93184,      512,     1024, b67363f09fd1e244672b6d3e5c1a6123
0,      93696,      93696,      512,     1024, 43e8330ff71c40d4d1abb02e7549aa78
0,      94208,      94208,      512,     1024, 343de90e94103fe6eab856a8225e26b9
0,      94720,      94720,      512,     1024, d205719a649cf1a263926b410649752d
0,      95232,      95232,      512,     1024, 4245b1fee4c24c74187565248ab95911
0,      95744,      95744,      256,      512, c49c960d8dff61fdb69ed5fc516554da
